HIERARCHY
ROOT hip
{
  OFFSET 0 0 0
  CHANNELS 6 Xposition Yposition Zposition Zrotation Yrotation Xrotation
  JOINT abdomen
  {
    OFFSET 0 20.6881 -0.73152
    CHANNELS 3 Zrotation Xrotation Yrotation
    JOINT chest
    {
      OFFSET 0 11.7043 -0.48768
      CHANNELS 3 Zrotation Xrotation Yrotation
      JOINT neck
      {
        OFFSET 0 22.1894 -2.19456
        CHANNELS 3 Zrotation Xrotation Yrotation
        JOINT head
        {
          OFFSET -0.24384 7.07133 1.2192
          CHANNELS 3 Zrotation Xrotation Yrotation
          JOINT leftEye
          {
            OFFSET 4.14528 8.04674 8.04672
            CHANNELS 3 Zrotation Xrotation Yrotation
            End Site
            {
              OFFSET 1 0 0
            }
          }
          JOINT rightEye
          {
            OFFSET -3.6576 8.04674 8.04672
            CHANNELS 3 Zrotation Xrotation Yrotation
            End Site
            {
              OFFSET 1 0 0
            }
          }
        }
      }
      JOINT rCollar
      {
        OFFSET -2.68224 19.2634 -4.8768
        CHANNELS 3 Zrotation Xrotation Yrotation
        JOINT rShldr
        {
          OFFSET -8.77824 -1.95073 1.46304
          CHANNELS 3 Zrotation Xrotation Yrotation
          JOINT rForeArm
          {
            OFFSET -28.1742 -1.7115 0.48768
            CHANNELS 3 Zrotation Xrotation Yrotation
            JOINT rHand
            {
              OFFSET -22.5879 0.773209 7.07136
              CHANNELS 3 Zrotation Xrotation Yrotation
              JOINT rThumb1
              {
                OFFSET -1.2192 -0.487915 3.41376
                CHANNELS 3 Zrotation Xrotation Yrotation
                JOINT rThumb2
                {
                  OFFSET -3.37035 -0.52449 3.41376
                  CHANNELS 3 Zrotation Xrotation Yrotation
                  End Site
                  {
                    OFFSET -1.78271 -1.18214 1.43049
                  }
                }
              }
              JOINT rIndex1
              {
                OFFSET -7.75947 0.938293 5.60832
                CHANNELS 3 Zrotation Xrotation Yrotation
                JOINT rIndex2
                {
                  OFFSET -2.54057 -0.884171 1.56538
                  CHANNELS 3 Zrotation Xrotation Yrotation
                  End Site
                  {
                    OFFSET -1.62519 -0.234802 1.16502
                  }
                }
              }
              JOINT rMid1
              {
                OFFSET -8.24714 1.18213 3.41376
                CHANNELS 3 Zrotation Xrotation Yrotation
                JOINT rMid2
                {
                  OFFSET -3.10165 -0.590103 1.0647
                  CHANNELS 3 Zrotation Xrotation Yrotation
                  End Site
                  {
                    OFFSET -2.48547 -0.328903 0.83742
                  }
                }
              }
              JOINT rRing1
              {
                OFFSET -8.82822 0.546677 1.51678
                CHANNELS 3 Zrotation Xrotation Yrotation
                JOINT rRing2
                {
                  OFFSET -2.60934 -0.819778 -0.0198488
                  CHANNELS 3 Zrotation Xrotation Yrotation
                  End Site
                  {
                    OFFSET -2.33842 -0.294052 0.168128
                  }
                }
              }
              JOINT rPinky1
              {
                OFFSET -8.27202 -0.0477905 -0.4584
                CHANNELS 3 Zrotation Xrotation Yrotation
                JOINT rPinky2
                {
                  OFFSET -1.82734 -0.647385 -0.700984
                  CHANNELS 3 Zrotation Xrotation Yrotation
                  End Site
                  {
                    OFFSET -1.69225 -0.51767 -0.607171
                  }
                }
              }
            }
          }
        }
      }
      JOINT lCollar
      {
        OFFSET 2.68224 19.2634 -4.8768
        CHANNELS 3 Zrotation Xrotation Yrotation
        JOINT lShldr
        {
          OFFSET 8.77824 -1.95073 1.46304
          CHANNELS 3 Zrotation Xrotation Yrotation
          JOINT lForeArm
          {
            OFFSET 28.1742 -1.7115 0.48768
            CHANNELS 3 Zrotation Xrotation Yrotation
            JOINT lHand
            {
              OFFSET 22.5879 0.773209 7.07136
              CHANNELS 3 Zrotation Xrotation Yrotation
              JOINT lThumb1
              {
                OFFSET 1.2192 -0.487915 3.41376
                CHANNELS 3 Zrotation Xrotation Yrotation
                JOINT lThumb2
                {
                  OFFSET 3.37035 -0.52449 3.41376
                  CHANNELS 3 Zrotation Xrotation Yrotation
                  End Site
                  {
                    OFFSET 1.78271 -1.18214 1.43049
                  }
                }
              }
              JOINT lIndex1
              {
                OFFSET 7.75947 0.938293 5.60832
                CHANNELS 3 Zrotation Xrotation Yrotation
                JOINT lIndex2
                {
                  OFFSET 2.54057 -0.884171 1.56538
                  CHANNELS 3 Zrotation Xrotation Yrotation
                  End Site
                  {
                    OFFSET 1.62519 -0.234802 1.16502
                  }
                }
              }
              JOINT lMid1
              {
                OFFSET 8.24714 1.18213 3.41376
                CHANNELS 3 Zrotation Xrotation Yrotation
                JOINT lMid2
                {
                  OFFSET 3.10165 -0.590103 1.0647
                  CHANNELS 3 Zrotation Xrotation Yrotation
                  End Site
                  {
                    OFFSET 2.48547 -0.328903 0.83742
                  }
                }
              }
              JOINT lRing1
              {
                OFFSET 8.82822 0.546677 1.51678
                CHANNELS 3 Zrotation Xrotation Yrotation
                JOINT lRing2
                {
                  OFFSET 2.60934 -0.819778 -0.0198488
                  CHANNELS 3 Zrotation Xrotation Yrotation
                  End Site
                  {
                    OFFSET 2.33842 -0.294052 0.168128
                  }
                }
              }
              JOINT lPinky1
              {
                OFFSET 8.27202 -0.0477905 -0.4584
                CHANNELS 3 Zrotation Xrotation Yrotation
                JOINT lPinky2
                {
                  OFFSET 1.82734 -0.647385 -0.700984
                  CHANNELS 3 Zrotation Xrotation Yrotation
                  End Site
                  {
                    OFFSET 1.69225 -0.51767 -0.607171
                  }
                }
              }
            }
          }
        }
      }
    }
  }
  JOINT rButtock
  {
    OFFSET -8.77824 4.35084 1.2192
    CHANNELS 3 Zrotation Xrotation Yrotation
    JOINT rThigh
    {
      OFFSET 0 -1.70687 -2.19456
      CHANNELS 3 Zrotation Xrotation Yrotation
      JOINT rShin
      {
        OFFSET 0 -36.8199 0.73152
        CHANNELS 3 Zrotation Xrotation Yrotation
        JOINT rFoot
        {
          OFFSET 0.73152 -45.1104 -5.12064
          CHANNELS 3 Zrotation Xrotation Yrotation
          End Site
          {
            OFFSET -1.1221 -3.69964 12.103
          }
        }
      }
    }
  }
  JOINT lButtock
  {
    OFFSET 8.77824 4.35084 1.2192
    CHANNELS 3 Zrotation Xrotation Yrotation
    JOINT lThigh
    {
      OFFSET 0 -1.70687 -2.19456
      CHANNELS 3 Zrotation Xrotation Yrotation
      JOINT lShin
      {
        OFFSET 0 -36.8199 0.73152
        CHANNELS 3 Zrotation Xrotation Yrotation
        JOINT lFoot
        {
          OFFSET -0.73152 -45.1104 -5.12064
          CHANNELS 3 Zrotation Xrotation Yrotation
          End Site
          {
            OFFSET 1.1221 -3.69964 12.103
          }
        }
      }
    }
  }
}
MOTION
Frames:	4
Frame Time:	0.00833333
29.4501 84.9248 77.2544 0.0 0.0 0.0 -0.112401 -0.00252033 -0.00326494 -0.0310776 -0.00419851 -0.00538463 7.66661e-16 0.0 -4.65902e-18 2.30466e-15 3.18055e-15 -1.55301e-17 -0.0 0.0 0.0 -0.0 0.0 0.0 4.4597e-16 2.71776e-18 1.49089e-16 9.90982e-15 2.04997e-16 7.95139e-16 1.40441e-13 -4.01545e-14 -2.54444e-14 1.59407e-12 5.08392e-14 3.18055e-15 3.76182e-12 2.06193e-14 -3.18055e-14 6.48197e-12 3.49861e-14 -6.20208e-14 3.76578e-12 1.90833e-14 -4.45278e-14 7.73091 5.47488 0.417314 3.76245e-12 2.04748e-14 -2.8625e-14 2.90554 0.965183 0.102902 3.77032e-12 2.09718e-14 -3.33958e-14 10.2786 0.731801 0.0259123 3.75842e-12 2.22639e-14 -2.54444e-14 2.22167 -0.733487 -0.20892 3.49193e-16 3.10601e-18 -1.49089e-16 6.0012e-15 4.09993e-16 -7.95139e-16 1.38454e-13 4.73108e-14 1.27222e-14 1.59433e-12 -1.55797e-14 -1.90833e-14 3.76039e-12 6.21714e-14 -2.8625e-14 6.50105e-12 1.08139e-13 -4.37326e-14 3.75464e-12 6.16232e-14 -2.8625e-14 -7.73091 5.47488 -0.417314 3.7618e-12 6.17226e-14 -3.18055e-14 -2.90554 0.965183 -0.102902 3.75808e-12 6.22196e-14 -2.8625e-14 -10.2786 0.731801 -0.0259123 3.76776e-12 6.40087e-14 -3.49861e-14 -2.22167 -0.733487 0.20892 -2.03217e-16 0.0 -3.88251e-19 0.354931 -2.94056 -0.0354301 -0.00588094 -0.224751 -0.0517709 -0.439782 3.16568 0.113075 2.03217e-16 0.0 3.88251e-19 -0.527771 -3.42453 0.0465082 0.00449893 0.65185 0.039053 0.443092 2.77306 -0.105715
33.9762 82.7094 70.3214 18.1916 -2.2326 32.9767 7.11615 -10.3213 2.17187 -2.23685 -0.862241 -0.169685 6.12448 1.8293 3.57704 -4.14273 7.19628 6.85871 -0.0 0.0 0.0 -0.0 0.0 0.0 1.81153e-13 -8.42982e-14 1.81624e-15 17.0729 31.7623 -14.5523 -23.4737 -21.343 14.7964 0.223736 10.526 1.39078 -6.94391e-10 -4.86283e-10 3.43706e-10 -1.19231e-09 -8.69187e-10 6.11406e-10 -6.94387e-10 -4.86284e-10 3.43696e-10 7.73091 5.47488 0.417314 -6.94391e-10 -4.86279e-10 3.43708e-10 2.90554 0.965183 0.102902 -6.94384e-10 -4.86283e-10 3.43706e-10 10.2786 0.731801 0.0259123 -6.94395e-10 -4.86282e-10 3.43714e-10 2.22167 -0.733487 -0.20892 1.81034e-13 -8.42919e-14 1.50214e-15 -17.0596 33.9892 7.55098 18.446 -16.0535 -15.1145 -0.00424081 1.44459 -0.202791 1.01048e-09 5.84587e-12 -1.96179e-10 1.7454e-09 9.58974e-12 -3.43625e-10 1.01047e-09 5.8477e-12 -1.96175e-10 -7.73091 5.47488 -0.417314 1.01048e-09 5.84718e-12 -1.96182e-10 -2.90554 0.965183 -0.102902 1.01047e-09 5.84809e-12 -1.96177e-10 -10.2786 0.731801 -0.0259123 1.01048e-09 5.84877e-12 -1.96183e-10 -2.22167 -0.733487 0.20892 -2.03217e-16 0.0 -3.88251e-19 -11.2684 -14.9223 6.79179 0.265838 9.68803 0.473186 -3.56623 -10.4236 -9.24612 2.03217e-16 0.0 3.88251e-19 -7.37542 -13.4143 -2.49131 -0.00140562 4.33633 -0.00830838 0.471331 1.02761 -0.000968269
33.9786 82.7102 70.3171 18.2028 -2.2486 32.9943 15.6633 -21.18 4.71848 -4.57448 -1.76904 -0.343372 12.3497 3.73993 7.37073 -10.4328 14.457 14.4666 -0.0 0.0 0.0 -0.0 0.0 0.0 3.7916e-13 -1.75234e-13 4.85159e-15 64.4896 56.3174 -50.6015 -34.0034 -38.7143 37.4281 -0.133463 21.6308 3.02599 -1.45494e-09 -1.0188e-09 7.21186e-10 -2.49821e-09 -1.82083e-09 1.28275e-09 -1.45494e-09 -1.0188e-09 7.21179e-10 7.73091 5.47488 0.417314 -1.45494e-09 -1.01879e-09 7.21187e-10 2.90554 0.965183 0.102902 -1.45494e-09 -1.0188e-09 7.21188e-10 10.2786 0.731801 0.0259123 -1.45495e-09 -1.0188e-09 7.21196e-10 2.22167 -0.733487 -0.20892 3.79017e-13 -1.75221e-13 4.51925e-15 -58.3929 66.6915 34.2509 28.0804 -29.1309 -34.7402 0.00240839 2.97151 -0.417577 2.11279e-09 7.33654e-12 -4.14352e-10 3.64942e-09 1.16116e-11 -7.25738e-10 2.11279e-09 7.34099e-12 -4.14346e-10 -7.73091 5.47488 -0.417314 2.11279e-09 7.33982e-12 -4.14356e-10 -2.90554 0.965183 -0.102902 2.11278e-09 7.34119e-12 -4.14349e-10 -10.2786 0.731801 -0.0259123 2.1128e-09 7.34067e-12 -4.14355e-10 -2.22167 -0.733487 0.20892 -2.03217e-16 0.0 -3.88251e-19 -20.1368 -26.9593 15.2232 0.344144 20.1644 1.08043 -11.9881 -23.6393 -20.6218 2.03217e-16 0.0 3.88251e-19 -15.6583 -23.9009 -5.50733 -0.000969061 8.23107 -0.0589142 0.508114 -0.817539 0.109856
33.9791 82.7099 70.3142 18.2053 -2.2544 33.0077 24.2441 -30.7654 7.47315 -6.66316 -2.57824 -0.498732 17.6901 5.40225 10.7741 -17.7576 20.3148 21.8343 -0.0 0.0 0.0 -0.0 0.0 0.0 5.42566e-13 -2.529e-13 5.15054e-15 130.718 52.2938 -100.224 -30.8844 -43.361 65.1592 -1.08501 31.4967 4.81244 -2.0907e-09 -1.45889e-09 1.03118e-09 -3.58989e-09 -2.60763e-09 1.83434e-09 -2.09069e-09 -1.45889e-09 1.03118e-09 7.73091 5.47488 0.417314 -2.0907e-09 -1.45888e-09 1.03118e-09 2.90554 0.965183 0.102902 -2.09069e-09 -1.45889e-09 1.03119e-09 10.2786 0.731801 0.0259123 -2.0907e-09 -1.45889e-09 1.03119e-09 2.22167 -0.733487 -0.20892 5.42404e-13 -2.52882e-13 4.80461e-15 -163.395 67.4902 122.83 28.9765 -33.6181 -55.8067 0.0180294 4.33355 -0.609922 3.02391e-09 1.74133e-11 -5.88479e-10 5.2232e-09 2.8553e-11 -1.03079e-09 3.02391e-09 1.74199e-11 -5.88469e-10 -7.73091 5.47488 -0.417314 3.02391e-09 1.74181e-11 -5.88483e-10 -2.90554 0.965183 -0.102902 3.0239e-09 1.74198e-11 -5.88474e-10 -10.2786 0.731801 -0.0259123 3.02391e-09 1.74183e-11 -5.8848e-10 -2.22167 -0.733487 0.20892 -2.03217e-16 0.0 -3.88251e-19 -24.3826 -36.4894 24.8619 0.197144 29.5034 1.72683 -24.6124 -33.1028 -33.4536 2.03217e-16 0.0 3.88251e-19 -24.1659 -33.1194 -8.8014 0.00534291 11.7053 -0.105141 0.546946 -2.46329 0.208472
